G04*
G04 #@! TF.GenerationSoftware,Altium Limited,Altium Designer,22.11.1 (43)*
G04*
G04 Layer_Color=65535*
%FSLAX25Y25*%
%MOIN*%
G70*
G04*
G04 #@! TF.SameCoordinates,8EA88497-2B70-42C5-92E3-E72B768CB83D*
G04*
G04*
G04 #@! TF.FilePolarity,Positive*
G04*
G01*
G75*
%ADD10C,0.00520*%
%ADD11C,0.00600*%
%ADD12C,0.00700*%
D10*
X5740Y26500D02*
G03*
X5740Y26500I-240J0D01*
G01*
D11*
X46700Y2000D02*
Y45000D01*
X35300D02*
X46700D01*
X35300Y2000D02*
Y45000D01*
Y2000D02*
X46700D01*
X2925Y14483D02*
Y15999D01*
X7075Y14483D02*
Y15999D01*
D12*
X24999Y36699D02*
X24299Y37399D01*
X22900D01*
X22200Y36699D01*
Y33900D01*
X22900Y33200D01*
X24299D01*
X24999Y33900D01*
Y35299D01*
X23599D01*
X26399Y33200D02*
Y35999D01*
X28498D01*
X29198Y35299D01*
Y33200D01*
X33396Y37399D02*
Y33200D01*
X31297D01*
X30597Y33900D01*
Y35299D01*
X31297Y35999D01*
X33396D01*
X22200Y9199D02*
X22900Y9899D01*
X24299D01*
X24999Y9199D01*
Y8499D01*
X24299Y7799D01*
X23599D01*
X24299D01*
X24999Y7100D01*
Y6400D01*
X24299Y5700D01*
X22900D01*
X22200Y6400D01*
X26399Y9899D02*
Y7100D01*
X27798Y5700D01*
X29198Y7100D01*
Y9899D01*
X30597Y9199D02*
X31297Y9899D01*
X32697D01*
X33396Y9199D01*
Y8499D01*
X32697Y7799D01*
X31997D01*
X32697D01*
X33396Y7100D01*
Y6400D01*
X32697Y5700D01*
X31297D01*
X30597Y6400D01*
X24999Y19365D02*
X24299Y20065D01*
X22900D01*
X22200Y19365D01*
Y18666D01*
X22900Y17966D01*
X24299D01*
X24999Y17266D01*
Y16566D01*
X24299Y15867D01*
X22900D01*
X22200Y16566D01*
X26399Y20065D02*
Y15867D01*
X28498D01*
X29198Y16566D01*
Y19365D01*
X28498Y20065D01*
X26399D01*
X30597Y15867D02*
Y18666D01*
X31997Y20065D01*
X33396Y18666D01*
Y15867D01*
Y17966D01*
X30597D01*
X24999Y29532D02*
X24299Y30232D01*
X22900D01*
X22200Y29532D01*
Y28832D01*
X22900Y28133D01*
X24299D01*
X24999Y27433D01*
Y26733D01*
X24299Y26033D01*
X22900D01*
X22200Y26733D01*
X29198Y29532D02*
X28498Y30232D01*
X27098D01*
X26399Y29532D01*
Y26733D01*
X27098Y26033D01*
X28498D01*
X29198Y26733D01*
X30597Y30232D02*
Y26033D01*
X33396D01*
X5014Y32164D02*
Y28665D01*
X5713Y27966D01*
X7113D01*
X7813Y28665D01*
Y32164D01*
X9212Y27966D02*
X10612D01*
X9912D01*
Y32164D01*
X9212Y31464D01*
X12001Y5401D02*
Y9599D01*
X14100D01*
X14800Y8900D01*
Y7500D01*
X14100Y6800D01*
X12001D01*
X13401D02*
X14800Y5401D01*
X18999D02*
X16200D01*
X18999Y8200D01*
Y8900D01*
X18299Y9599D01*
X16899D01*
X16200Y8900D01*
X12701Y38901D02*
Y43099D01*
X14800D01*
X15500Y42399D01*
Y41000D01*
X14800Y40300D01*
X12701D01*
X14100D02*
X15500Y38901D01*
X16899D02*
X18299D01*
X17599D01*
Y43099D01*
X16899Y42399D01*
X28500Y44599D02*
X27101D01*
X27800D01*
Y41100D01*
X27101Y40401D01*
X26401D01*
X25701Y41100D01*
X29899Y40401D02*
X31299D01*
X30599D01*
Y44599D01*
X29899Y43900D01*
X5000Y7900D02*
X4300Y8599D01*
X2901D01*
X2201Y7900D01*
Y5100D01*
X2901Y4401D01*
X4300D01*
X5000Y5100D01*
X6400Y4401D02*
X7799D01*
X7099D01*
Y8599D01*
X6400Y7900D01*
M02*
